<svg width="95" height="11" viewBox="0 0 95 11" fill="none" xmlns="http://www.w3.org/2000/svg">
<path d="M37.6442 5.65985C34.1263 5.78901 30.6121 6.00548 27.1044 6.3007C26.1414 6.38175 25.3154 7.06475 25.3154 8.08976C25.3154 8.99485 26.1361 9.96022 27.1044 9.87851C39.4365 8.84065 51.8484 8.82682 64.1818 9.85776C67.6898 10.151 71.1898 10.5309 74.68 10.9895C75.6398 11.1157 76.4691 10.0772 76.4691 9.20046C76.4691 8.12932 75.6427 7.53823 74.68 7.41171C62.4098 5.79923 50.0122 5.20583 37.6442 5.65985ZM0.0561183 6.85653C-0.181107 5.99296 0.352318 4.81639 1.30583 4.65593C7.9745 3.53274 14.6788 2.61283 21.4044 1.90478C33.2249 0.660332 45.1151 0.0781348 57.0008 0.160175C68.9401 0.242545 80.8713 1.00101 92.7263 2.41975C93.6897 2.53507 94.515 3.14626 94.515 4.20884C94.515 5.09316 93.687 6.11256 92.7263 5.99757C86.1169 5.20682 79.4845 4.61837 72.8389 4.24145C61.0247 3.57096 49.1733 3.56141 37.3582 4.20752C25.5954 4.85066 13.8735 6.14946 2.25672 8.10592C1.30056 8.26703 0.33387 7.86672 0.0561183 6.85653Z" fill="#FF9431"/>
</svg>
