<svg width="121" height="44" viewBox="0 0 121 44" fill="none" xmlns="http://www.w3.org/2000/svg">
<path d="M40.2323 40.5212V38.1465C40.2323 37.3013 40.7631 36.7984 41.5733 36.7984C42.4534 36.7984 42.8864 37.3712 42.8724 38.5097L42.1321 38.5305C42.1251 37.7484 41.9155 37.4969 41.5594 37.4969C41.1892 37.4969 41.0006 37.7274 41.0006 38.1814V40.4722C41.0006 40.9403 41.1892 41.1707 41.5594 41.1707C41.9435 41.1707 42.1181 40.8774 42.1251 40.0672L42.8724 40.0882C42.8724 41.2755 42.4324 41.8691 41.5524 41.8691C40.7492 41.8691 40.2323 41.3802 40.2323 40.5212Z" fill="#F9FDFE"/>
<path d="M44.1993 39.3557H44.6254C45.0375 39.3557 45.2469 39.1531 45.2469 38.748V38.1823C45.2469 37.7562 45.0375 37.5746 44.6254 37.5746H44.1993V39.3557ZM44.6463 40.0402H44.1993V41.7793H43.438V36.89H44.6463C45.4775 36.89 46.0152 37.3232 46.0152 38.1055V38.8179C46.0152 39.3207 45.8057 39.677 45.3936 39.8795L46.106 41.7793H45.2679L44.6463 40.0402Z" fill="#F9FDFE"/>
<path d="M48.9629 41.0878V41.7793H46.6371V36.8901H48.949V37.5816H47.3984V39.0065H48.8721V39.6979H47.3984V41.0878H48.9629Z" fill="#F9FDFE"/>
<path d="M51.1845 40.2637L50.7444 37.9168H50.7305L50.3044 40.2637H51.1845ZM51.3172 40.9552H50.1787L50.032 41.7793H49.2567L50.2904 36.8692H51.2334L52.2601 41.7793H51.4708L51.3172 40.9552Z" fill="#F9FDFE"/>
<path d="M54.6977 37.5886H53.8176V41.7793H53.0493V37.5886H52.1693V36.8901H54.6977V37.5886Z" fill="#F9FDFE"/>
<path d="M57.5053 41.0878V41.7793H55.1794V36.8901H57.4913V37.5816H55.9407V39.0065H57.4144V39.6979H55.9407V41.0878H57.5053Z" fill="#F9FDFE"/>
<path d="M59.6147 38.9974C59.8662 38.9974 60.0617 39.193 60.0617 39.4444C60.0617 39.7028 59.8662 39.8984 59.6147 39.8984C59.3632 39.8984 59.1677 39.7028 59.1677 39.4444C59.1677 39.193 59.3632 38.9974 59.6147 38.9974Z" fill="#02C9F5"/>
<path d="M61.8009 40.5212V38.1465C61.8009 37.3013 62.3317 36.7984 63.1418 36.7984C64.022 36.7984 64.4549 37.3712 64.441 38.5097L63.7006 38.5305C63.6936 37.7484 63.4841 37.4969 63.1278 37.4969C62.7578 37.4969 62.5692 37.7274 62.5692 38.1814V40.4722C62.5692 40.9403 62.7578 41.1707 63.1278 41.1707C63.5121 41.1707 63.6867 40.8774 63.6936 40.0672L64.441 40.0882C64.441 41.2755 64.001 41.8691 63.1209 41.8691C62.3176 41.8691 61.8009 41.3802 61.8009 40.5212Z" fill="#F9FDFE"/>
<path d="M66.8163 38.1325C66.8163 37.7203 66.5998 37.4899 66.2714 37.4899C65.9432 37.4899 65.7198 37.7203 65.7198 38.1325V40.5281C65.7198 40.9472 65.9432 41.1777 66.2714 41.1777C66.5998 41.1777 66.8163 40.9472 66.8163 40.5281V38.1325ZM65.3215 41.513C65.0772 41.2754 64.9514 40.9542 64.9514 40.5421V38.1185C64.9514 37.7134 65.0772 37.3921 65.3215 37.1546C65.5731 36.917 65.8874 36.7984 66.2714 36.7984C66.6557 36.7984 66.97 36.917 67.2144 37.1546C67.4588 37.3921 67.5846 37.7134 67.5846 38.1185V40.5421C67.5846 40.9542 67.4588 41.2754 67.2144 41.513C66.97 41.7504 66.6557 41.8691 66.2714 41.8691C65.8874 41.8691 65.5661 41.7504 65.3215 41.513Z" fill="#F9FDFE"/>
<path d="M68.2063 36.8902H68.9327L70.0921 39.7607H70.1061V36.8902H70.8534V41.7793H70.1131L68.9607 38.9994H68.9468V41.7793H68.2063V36.8902Z" fill="#F9FDFE"/>
<path d="M71.5167 36.8902H72.2431L73.4025 39.7607H73.4164V36.8902H74.1638V41.7793H73.4235L72.271 38.9994H72.2571V41.7793H71.5167V36.8902Z" fill="#F9FDFE"/>
<path d="M77.1537 41.0878V41.7793H74.8278V36.8901H77.1397V37.5816H75.5891V39.0065H77.0628V39.6979H75.5891V41.0878H77.1537Z" fill="#F9FDFE"/>
<path d="M77.6005 40.5212V38.1465C77.6005 37.3013 78.1314 36.7984 78.9415 36.7984C79.8215 36.7984 80.2546 37.3712 80.2406 38.5097L79.5002 38.5305C79.4933 37.7484 79.2837 37.4969 78.9275 37.4969C78.5575 37.4969 78.3687 37.7274 78.3687 38.1814V40.4722C78.3687 40.9403 78.5575 41.1707 78.9275 41.1707C79.3118 41.1707 79.4863 40.8774 79.4933 40.0672L80.2406 40.0882C80.2406 41.2755 79.8007 41.8691 78.9206 41.8691C78.1173 41.8691 77.6005 41.3802 77.6005 40.5212Z" fill="#F9FDFE"/>
<path d="M83.1111 37.5886H82.231V41.7793H81.4627V37.5886H80.5826V36.8901H83.1111V37.5886Z" fill="#F9FDFE"/>
<path d="M85.1644 38.9974C85.416 38.9974 85.6114 39.193 85.6114 39.4444C85.6114 39.7028 85.416 39.8984 85.1644 39.8984C84.913 39.8984 84.7175 39.7028 84.7175 39.4444C84.7175 39.193 84.913 38.9974 85.1644 38.9974Z" fill="#02C9F5"/>
<path d="M87.3508 40.5212V38.1465C87.3508 37.3013 87.8817 36.7984 88.6918 36.7984C89.5719 36.7984 90.0048 37.3712 89.991 38.5097L89.2505 38.5305C89.2435 37.7484 89.034 37.4969 88.6778 37.4969C88.3077 37.4969 88.1191 37.7274 88.1191 38.1814V40.4722C88.1191 40.9403 88.3077 41.1707 88.6778 41.1707C89.0621 41.1707 89.2366 40.8774 89.2435 40.0672L89.991 40.0882C89.991 41.2755 89.551 41.8691 88.6709 41.8691C87.8675 41.8691 87.3508 41.3802 87.3508 40.5212Z" fill="#F9FDFE"/>
<path d="M92.3653 38.1325C92.3653 37.7203 92.1488 37.4899 91.8205 37.4899C91.4922 37.4899 91.2687 37.7203 91.2687 38.1325V40.5281C91.2687 40.9472 91.4922 41.1777 91.8205 41.1777C92.1488 41.1777 92.3653 40.9472 92.3653 40.5281V38.1325ZM90.8706 41.513C90.6262 41.2754 90.5005 40.9542 90.5005 40.5421V38.1185C90.5005 37.7134 90.6262 37.3921 90.8706 37.1546C91.1221 36.917 91.4364 36.7984 91.8205 36.7984C92.2047 36.7984 92.5189 36.917 92.7634 37.1546C93.0078 37.3921 93.1337 37.7134 93.1337 38.1185V40.5421C93.1337 40.9542 93.0078 41.2754 92.7634 41.513C92.5189 41.7504 92.2047 41.8691 91.8205 41.8691C91.4364 41.8691 91.1151 41.7504 90.8706 41.513Z" fill="#F9FDFE"/>
<path d="M96.0818 41.0808V41.7793H93.7559V36.89H94.5172V41.0808H96.0818Z" fill="#F9FDFE"/>
<path d="M98.9801 41.0808V41.7793H96.6542V36.89H97.4155V41.0808H98.9801Z" fill="#F9FDFE"/>
<path d="M101.236 40.2637L100.796 37.9168H100.782L100.356 40.2637H101.236ZM101.369 40.9552H100.231L100.084 41.7793H99.3086L100.342 36.8692H101.285L102.312 41.7793H101.523L101.369 40.9552Z" fill="#F9FDFE"/>
<path d="M104.596 40.1939C104.596 39.8516 104.414 39.6771 104.051 39.6771H103.5V41.1019H104.03C104.373 41.1019 104.596 40.9202 104.596 40.564V40.1939ZM104.009 37.5607H103.5V39.0204H104.03C104.366 39.0204 104.561 38.8319 104.561 38.4757V38.0846C104.561 37.7353 104.38 37.5607 104.009 37.5607ZM105.357 40.2847V40.6897C105.357 41.3882 104.854 41.7793 104.079 41.7793H102.738V36.8902H104.051C104.827 36.8902 105.322 37.2744 105.322 37.9728V38.3989C105.322 38.8319 105.148 39.1463 104.792 39.3418C105.169 39.5304 105.357 39.8446 105.357 40.2847Z" fill="#F9FDFE"/>
<path d="M107.697 38.1325C107.697 37.7203 107.48 37.4899 107.152 37.4899C106.824 37.4899 106.6 37.7203 106.6 38.1325V40.5281C106.6 40.9472 106.824 41.1777 107.152 41.1777C107.48 41.1777 107.697 40.9472 107.697 40.5281V38.1325ZM106.202 41.513C105.958 41.2754 105.832 40.9542 105.832 40.5421V38.1185C105.832 37.7134 105.958 37.3921 106.202 37.1546C106.454 36.917 106.768 36.7984 107.152 36.7984C107.536 36.7984 107.851 36.917 108.095 37.1546C108.34 37.3921 108.465 37.7134 108.465 38.1185V40.5421C108.465 40.9542 108.34 41.2754 108.095 41.513C107.851 41.7504 107.536 41.8691 107.152 41.8691C106.768 41.8691 106.447 41.7504 106.202 41.513Z" fill="#F9FDFE"/>
<path d="M109.848 39.3557H110.274C110.686 39.3557 110.896 39.1531 110.896 38.748V38.1823C110.896 37.7562 110.686 37.5746 110.274 37.5746H109.848V39.3557ZM110.295 40.0402H109.848V41.7793H109.087V36.89H110.295C111.126 36.89 111.664 37.3232 111.664 38.1055V38.8179C111.664 39.3207 111.455 39.677 111.043 39.8795L111.755 41.7793H110.917L110.295 40.0402Z" fill="#F9FDFE"/>
<path d="M113.921 40.2637L113.481 37.9168H113.466L113.04 40.2637H113.921ZM114.053 40.9552H112.915L112.768 41.7793H111.993L113.026 36.8692H113.969L114.996 41.7793H114.207L114.053 40.9552Z" fill="#F9FDFE"/>
<path d="M117.434 37.5886H116.554V41.7793H115.785V37.5886H114.905V36.8901H117.434V37.5886Z" fill="#F9FDFE"/>
<path d="M120.241 41.0878V41.7793H117.916V36.8901H120.227V37.5816H118.677V39.0065H120.151V39.6979H118.677V41.0878H120.241Z" fill="#F9FDFE"/>
<path d="M51.5159 32.4727H40.5666L40.2323 29.6727L47.6711 6.06056H41.4024V2.17392H52.3099V4.97392L44.8711 28.5443H51.1816L51.5159 32.4727Z" fill="#F9FDFE"/>
<path d="M59.2476 28.4607H63.8447L61.4625 14.5859L59.2476 28.4607ZM54.776 32.4727L59.8745 2.17383H63.3014L68.6925 32.4727H64.7224L64.5551 32.4308H58.579L58.7461 32.4727H54.776Z" fill="#F9FDFE"/>
<path d="M70.5735 25.8662L70.6153 9.65106H74.502V25.8662C74.502 27.4961 75.8393 28.8752 77.4692 28.8752C79.1408 28.8752 80.4781 27.4961 80.4781 25.8662V9.65106H84.4065V25.8662C84.4065 29.6692 81.3139 32.7617 77.4692 32.7617C73.6662 32.7617 70.5735 29.6692 70.5735 25.8662Z" fill="#F9FDFE"/>
<path d="M84.4066 6.05859H70.6155V2.1302H75.1706H84.4066V6.05859Z" fill="#80EB3D"/>
<path d="M99.2013 32.4727L98.9506 17.8457L95.0639 29.4637L91.219 17.8457L91.4699 32.4727H87.4579L87.2489 2.21568H90.8012L95.0221 18.8906L99.3266 2.21568H102.963L103.213 32.4727H99.2013Z" fill="#F9FDFE"/>
<path fill-rule="evenodd" clip-rule="evenodd" d="M106.432 6.05925H120.223V2.13086H110.987H106.432V6.05925ZM106.432 9.65167L106.39 25.8668C106.39 29.6698 109.482 32.7623 113.285 32.7623C117.13 32.7623 120.223 29.6698 120.223 25.8668V9.65167H116.294V25.8668C116.294 27.4967 114.957 28.8758 113.285 28.8758C111.656 28.8758 110.318 27.4967 110.318 25.8668V9.65167H106.432Z" fill="#F9FDFE"/>
<path d="M17.0761 0.2911C17.0761 0.2911 16.4837 -0.116608 15.4465 0.328079C15.4465 0.328079 13.8535 -0.302139 12.4829 0.549984H11.8162C11.8162 0.549984 10.5936 1.40229 9.44575 0.216778C9.44575 0.216778 8.96398 0.364536 8.6306 1.10545C8.6306 1.10545 7.6677 1.77213 6.92679 1.95766C6.92679 1.95766 6.26012 2.62434 6.33373 3.43939C6.33373 3.43939 5.59344 4.32824 4.40793 4.55076C4.40793 4.55076 3.85194 4.92122 3.70418 5.47659C3.70418 5.47659 3.00043 5.47659 2.59282 6.62502C2.59282 6.62502 1.29644 7.66224 0.96315 8.62514C0.96315 8.62514 1.81475 10.2547 -0.000366211 12.7736L0.44432 13.5517L0.111026 14.4408C0.111026 14.4408 1.62983 14.9591 2.14804 17.6636C2.14804 17.6636 3.44494 18.5895 5.07469 19.738C5.07469 19.738 8.07514 18.8486 9.03813 19.6637C9.03813 19.6637 13.2609 17.404 13.7792 19.8486C13.7792 19.8486 13.7426 20.256 15.7056 19.775C15.7056 19.775 16.9648 20.5523 16.0761 21.8121C16.0761 21.8121 16.261 22.5159 15.7798 23.1455C15.7798 23.1455 15.9648 23.738 15.9648 23.8493C15.9648 23.8493 18.6321 26.3682 18.595 28.0349L18.3359 28.2576C18.3359 28.2576 19.0762 29.6282 18.817 30.2576C18.5579 30.8872 17.7799 30.4425 17.7428 33.7394C17.7428 33.7394 19.4466 36.1471 19.4466 36.9622C19.4466 36.9622 19.1875 38.9993 20.5208 40.259C20.5208 40.259 21.2617 41.6295 21.2617 41.8887C21.2617 41.8887 21.9284 42.2962 21.4101 42.8517C21.4101 42.8517 21.5209 43.9258 22.5215 44C22.5215 44 23.7064 43.3705 25.114 43.7038C25.1511 43.7124 25.1888 43.7201 25.2265 43.7258V3.22032L25.0033 3.17971C25.0033 3.17971 25.1511 3.06902 25.0398 2.84641C24.929 2.62434 23.5586 2.51303 23.0768 3.51371C23.0768 3.51371 23.5957 4.03193 22.7806 4.32824C22.7806 4.32824 21.7435 3.66147 20.9284 3.73571C20.9284 3.73571 20.5208 3.36525 20.5208 2.99479C20.5208 2.99479 19.8541 2.62434 19.1875 2.84641C19.1875 2.84641 18.7799 2.17965 18.1874 2.40234C18.1874 2.40234 17.3723 1.95766 18.3723 1.43892C18.3723 1.43892 18.5579 0.920532 18.002 0.62431C18.002 0.62431 18.3359 0.587234 18.3723 0.105389C18.3723 0.105389 18.1498 0 17.8497 0C17.6161 0 17.3354 0.0639038 17.0761 0.2911Z" fill="url(#paint0_radial_3063_8101)"/>
<path d="M33.1883 10.4685V12.584L33.0857 12.4622C32.8544 12.1886 32.5164 12.0321 32.1593 12.0321C31.4914 12.0321 30.9482 12.5747 30.9482 13.242C30.9482 13.9104 31.4914 14.453 32.1593 14.453C32.5187 14.453 32.8554 14.2965 33.0857 14.0222L33.1883 13.8988V16.4473H36.629C36.335 16.0728 36.1751 15.6108 36.1751 15.1318C36.1751 14.6872 36.3119 14.2745 36.5455 13.9318C36.3414 13.8091 36.1118 13.6826 35.8544 13.5539C35.8544 13.5539 35.4468 13.1094 34.8916 11.7758L34.0764 11.2576C34.0764 11.2576 34.0288 10.9259 33.9652 10.4685H33.1883Z" fill="url(#paint1_radial_3063_8101)"/>
<path d="M33.1883 10.4685V12.584L33.0857 12.4622C32.8544 12.1886 32.5164 12.0321 32.1593 12.0321C31.4914 12.0321 30.9482 12.5747 30.9482 13.242C30.9482 13.9104 31.4914 14.453 32.1593 14.453C32.5187 14.453 32.8554 14.2965 33.0857 14.0222L33.1883 13.8988V16.4473H36.629C36.335 16.0728 36.1751 15.6108 36.1751 15.1318C36.1751 14.6872 36.3119 14.2745 36.5455 13.9318C36.3414 13.8091 36.1118 13.6826 35.8544 13.5539C35.8544 13.5539 35.4468 13.1094 34.8916 11.7758L34.0764 11.2576C34.0764 11.2576 34.0288 10.9259 33.9652 10.4685H33.1883Z" fill="url(#paint2_radial_3063_8101)"/>
<path d="M33.4572 9.65039H33.8438C33.8038 9.59999 33.6566 9.4209 33.4572 9.26837V9.65039Z" fill="url(#paint3_radial_3063_8101)"/>
<path d="M37.099 15.1318C37.099 15.7998 37.6416 16.3418 38.3089 16.3418C38.4619 16.3418 38.6079 16.3134 38.743 16.2612C38.5077 16.0148 38.1396 15.7492 37.7448 15.9244L38.1894 15.4803C38.1894 15.4803 38.066 15.0565 37.307 14.453C37.1755 14.6466 37.099 14.8803 37.099 15.1318Z" fill="url(#paint4_radial_3063_8101)"/>
<path d="M37.099 15.1318C37.099 15.7998 37.6416 16.3418 38.3089 16.3418C38.4619 16.3418 38.6079 16.3134 38.743 16.2612C38.5077 16.0148 38.1396 15.7492 37.7448 15.9244L38.1894 15.4803C38.1894 15.4803 38.066 15.0565 37.307 14.453C37.1755 14.6466 37.099 14.8803 37.099 15.1318Z" fill="url(#paint5_radial_3063_8101)"/>
<path d="M29.5828 3.76092C29.6122 3.90823 29.6273 4.0589 29.6273 4.21196C29.6273 5.4642 28.6089 6.48156 27.356 6.48156C26.9472 6.48156 26.5507 6.37334 26.2029 6.16618V9.19531H27.2075V9.13326C27.2075 7.88279 28.1775 6.86429 29.3699 6.86429C30.5631 6.86429 31.5329 7.88279 31.5329 9.13326C31.5329 9.15471 31.5329 9.17448 31.5317 9.19531H32.7508V7.97662C32.6124 7.91059 32.2686 7.65321 31.817 6.66657C31.817 6.66657 31.1138 5.4439 30.9282 5.33268L30.632 4.77722L30.7799 4.55514C30.7799 4.55514 31.4471 5.66651 31.9283 5.85152C31.9283 5.85152 32.5578 5.07344 31.8913 3.74009C31.8913 3.74009 31.1875 4.07347 30.2245 3.59163C30.2245 3.59163 29.9195 3.65261 29.5828 3.76092Z" fill="url(#paint6_radial_3063_8101)"/>
<path d="M29.3462 7.79784C28.6482 7.80526 28.083 8.37511 28.083 9.07541C28.083 9.39609 28.2019 9.70325 28.4199 9.93981L28.5096 10.0366H26.2029V13.3039C26.5729 13.0176 27.0232 12.8616 27.4841 12.8616C28.6778 12.8616 29.6477 13.8802 29.6477 15.1318C29.6477 15.6108 29.5085 16.063 29.246 16.4473H32.319V15.3701C32.2669 15.3748 32.213 15.3759 32.1596 15.3759C30.9833 15.3759 30.0256 14.4192 30.0256 13.242C30.0256 12.0657 30.9833 11.108 32.1596 11.108C32.213 11.108 32.2669 11.1103 32.319 11.1138V10.0366H30.2112L30.301 9.93981C30.5178 9.70325 30.6377 9.39609 30.6377 9.07541C30.6377 8.37511 30.0714 7.80526 29.3739 7.79784H29.3462Z" fill="url(#paint7_radial_3063_8101)"/>
<path d="M29.3462 7.79784C28.6482 7.80526 28.083 8.37511 28.083 9.07541C28.083 9.39609 28.2019 9.70325 28.4199 9.93981L28.5096 10.0366H26.2029V13.3039C26.5729 13.0176 27.0232 12.8616 27.4841 12.8616C28.6778 12.8616 29.6477 13.8802 29.6477 15.1318C29.6477 15.6108 29.5085 16.063 29.246 16.4473H32.319V15.3701C32.2669 15.3748 32.213 15.3759 32.1596 15.3759C30.9833 15.3759 30.0256 14.4192 30.0256 13.242C30.0256 12.0657 30.9833 11.108 32.1596 11.108C32.213 11.108 32.2669 11.1103 32.319 11.1138V10.0366H30.2112L30.301 9.93981C30.5178 9.70325 30.6377 9.39609 30.6377 9.07541C30.6377 8.37511 30.0714 7.80526 29.3739 7.79784H29.3462Z" fill="url(#paint8_radial_3063_8101)"/>
<path d="M26.1969 15.0738C26.1969 15.7782 26.7698 16.3516 27.4746 16.3516C28.1784 16.3516 28.7524 15.7782 28.7524 15.0738C28.7524 14.3687 28.1784 13.796 27.4746 13.796C26.7698 13.796 26.1969 14.3687 26.1969 15.0738Z" fill="url(#paint9_radial_3063_8101)"/>
<path d="M26.1969 15.0738C26.1969 15.7782 26.7698 16.3516 27.4746 16.3516C28.1784 16.3516 28.7524 15.7782 28.7524 15.0738C28.7524 14.3687 28.1784 13.796 27.4746 13.796C26.7698 13.796 26.1969 14.3687 26.1969 15.0738Z" fill="url(#paint10_radial_3063_8101)"/>
<path d="M26.5651 3.53683C26.3796 3.74902 26.2671 4.02672 26.2671 4.33053C26.2671 4.99835 26.8109 5.54102 27.4782 5.54102C28.1455 5.54102 28.6881 4.99835 28.6881 4.33053C28.6881 4.18851 28.6636 4.05223 28.6184 3.92583C28.4475 3.87481 28.194 3.85221 27.8539 3.95946C27.8539 3.95946 28.035 3.53683 26.5708 3.53683H26.5651Z" fill="url(#paint11_radial_3063_8101)"/>
<path d="M26.5651 3.53683C26.3796 3.74902 26.2671 4.02672 26.2671 4.33053C26.2671 4.99835 26.8109 5.54102 27.4782 5.54102C28.1455 5.54102 28.6881 4.99835 28.6881 4.33053C28.6881 4.18851 28.6636 4.05223 28.6184 3.92583C28.4475 3.87481 28.194 3.85221 27.8539 3.95946C27.8539 3.95946 28.035 3.53683 26.5708 3.53683H26.5651Z" fill="url(#paint12_radial_3063_8101)"/>
<path d="M33.2461 24.5546V26.67L33.1435 26.5483C32.9122 26.2745 32.5741 26.1181 32.2171 26.1181C31.5493 26.1181 31.006 26.6607 31.006 27.328C31.006 27.9965 31.5493 28.5391 32.2171 28.5391C32.5764 28.5391 32.9133 28.3827 33.1435 28.1083L33.2461 27.9847V30.5332H35.9326C35.9303 30.3594 35.9285 30.2105 35.9285 30.11C35.9285 30.11 36.521 29.7026 35.5581 29.2955C35.5581 29.2955 35.6323 28.7026 35.1876 28.2956C35.1876 28.2956 35.9285 27.4804 35.0764 26.9987C35.0764 26.9987 35.1314 26.6677 35.3343 26.1864C34.9609 25.8016 34.7314 25.2775 34.7314 24.7C34.7314 24.6527 34.7325 24.6033 34.7348 24.5546H33.2461Z" fill="url(#paint13_radial_3063_8101)"/>
<path d="M33.5148 17.437V18.2505C33.5882 18.2435 33.6648 18.2388 33.7419 18.2388C34.9953 18.2388 36.0139 19.2575 36.0139 20.508C36.0139 21.7601 34.9953 22.7787 33.7419 22.7787C33.6694 22.7787 33.5929 22.7741 33.5148 22.7672V23.7375H36.1176L36.0162 23.8378C35.7825 24.068 35.6544 24.3759 35.6544 24.7023C35.6544 24.9192 35.7118 25.1226 35.8121 25.2988C36.1135 24.843 36.5338 24.3573 37.1142 23.9255C37.1142 23.9255 38.0405 22.4598 39.3577 21.948V20.3224C39.0556 20.4826 38.7148 20.5665 38.367 20.5665C37.1901 20.5665 36.233 19.6094 36.233 18.4325C36.233 18.0846 36.3171 17.7427 36.4794 17.437H33.5148Z" fill="url(#paint14_radial_3063_8101)"/>
<path d="M37.1561 18.4343C37.1561 19.1029 37.6988 19.6465 38.3661 19.6465C39.0333 19.6465 39.577 19.1029 39.577 18.4343C39.577 17.7665 39.0333 17.2227 38.3661 17.2227C37.6988 17.2227 37.1561 17.7665 37.1561 18.4343Z" fill="url(#paint15_radial_3063_8101)"/>
<path d="M29.5145 17.4362C29.6281 17.7082 29.6849 17.9974 29.6849 18.2959C29.6849 19.5482 28.6664 20.5656 27.4136 20.5656C27.0049 20.5656 26.6084 20.4572 26.2605 20.2503V23.2793H27.2651V23.2172C27.2651 21.9668 28.2351 20.9481 29.4275 20.9481C30.6207 20.9481 31.5906 21.9668 31.5906 23.2172C31.5906 23.2387 31.5906 23.2583 31.5893 23.2793H32.8085V21.1848L32.911 21.3031C33.1413 21.5669 33.4735 21.718 33.8225 21.718C34.491 21.718 35.0346 21.1755 35.0346 20.5082C35.0346 19.8399 34.491 19.2972 33.8225 19.2972C33.4735 19.2972 33.1413 19.4479 32.911 19.7123L32.8085 19.8304V17.4362H29.5145Z" fill="url(#paint16_radial_3063_8101)"/>
<path d="M28.1406 23.1615C28.1406 23.4821 28.2594 23.7895 28.4774 24.0259L28.5673 24.1226H26.2605V27.39C26.6304 27.1038 27.0809 26.9478 27.5416 26.9478C28.7354 26.9478 29.7053 27.9663 29.7053 29.2179C29.7053 29.6968 29.5661 30.149 29.3036 30.5332H32.3766V29.4562C32.3245 29.4608 32.2706 29.462 32.2172 29.462C31.041 29.462 30.0832 28.5055 30.0832 27.328C30.0832 26.1517 31.041 25.1941 32.2172 25.1941C32.2706 25.1941 32.3245 25.1964 32.3766 25.1998V24.1226H30.2688L30.3585 24.0259C30.5754 23.7895 30.6954 23.4821 30.6954 23.1615C30.6954 22.4565 30.1215 21.8838 29.4177 21.8838C28.7133 21.8838 28.1406 22.4565 28.1406 23.1615Z" fill="url(#paint17_radial_3063_8101)"/>
<path d="M26.2546 29.1618C26.2546 29.8662 26.8274 30.4395 27.5324 30.4395C28.2361 30.4395 28.8101 29.8662 28.8101 29.1618C28.8101 28.4568 28.2361 27.884 27.5324 27.884C26.8274 27.884 26.2546 28.4568 26.2546 29.1618Z" fill="url(#paint18_radial_3063_8101)"/>
<path d="M26.3248 18.4184C26.3248 19.0863 26.8686 19.6289 27.5359 19.6289C28.2031 19.6289 28.7458 19.0863 28.7458 18.4184C28.7458 17.7511 28.2031 17.2074 27.5359 17.2074C26.8686 17.2074 26.3248 17.7511 26.3248 18.4184Z" fill="url(#paint19_radial_3063_8101)"/>
<path d="M33.5148 31.5276V32.341C33.5882 32.334 33.6648 32.3295 33.7419 32.3295C34.4167 32.3295 35.0231 32.6245 35.4387 33.0918C35.7007 32.8605 35.9041 32.5743 35.9656 32.2261V32.2221C35.9648 32.1868 35.9583 31.8923 35.9507 31.5276H33.5148Z" fill="url(#paint20_radial_3063_8101)"/>
<path d="M29.5145 31.5261C29.6281 31.7981 29.6849 32.0873 29.6849 32.3859C29.6849 33.638 28.6664 34.6556 27.4136 34.6556C27.0049 34.6556 26.6084 34.5471 26.2605 34.3402V37.3691H27.2651V37.3073C27.2651 36.0568 28.2351 35.0382 29.4275 35.0382C30.6207 35.0382 31.5906 36.0568 31.5906 37.3073C31.5906 37.3286 31.5906 37.3483 31.5893 37.3691H32.2889C32.3899 36.9964 32.3888 36.474 32.1876 35.7431C32.1876 35.7431 31.5204 35.2989 33.0393 34.6323C33.0393 34.6323 33.521 34.3361 33.6688 33.9285C33.6688 33.9285 34.0787 33.8404 34.5535 33.6323C34.35 33.4786 34.0967 33.387 33.8225 33.387C33.4735 33.387 33.1413 33.5378 32.911 33.8022L32.8085 33.9204V31.5261H29.5145Z" fill="url(#paint21_radial_3063_8101)"/>
<path d="M28.1406 37.2503C28.1406 37.5709 28.2594 37.8782 28.4774 38.1148L28.5673 38.2117H26.2605V41.4788C26.6304 41.1924 27.0809 41.0365 27.5416 41.0365C28.0866 41.0365 28.5839 41.248 28.9644 41.5977C29.0745 41.4452 29.1737 41.2946 29.2612 41.1502L30.1499 40.4836C30.1499 40.4836 30.8908 39.5206 30.4461 38.8903C30.4461 38.8903 30.6316 38.3722 31.1498 38.2979C31.1498 38.2979 31.3319 38.2979 31.5552 38.2117H30.2688L30.3585 38.1148C30.5754 37.8782 30.6954 37.5709 30.6954 37.2503C30.6954 36.5454 30.1215 35.9726 29.4177 35.9726C28.7133 35.9726 28.1406 36.5454 28.1406 37.2503Z" fill="url(#paint22_radial_3063_8101)"/>
<path d="M26.2546 43.2529C26.2546 43.4093 26.2831 43.5601 26.3352 43.6992C27.0697 43.5271 27.8008 42.9555 28.3917 42.3085C28.1649 42.1017 27.8629 41.9752 27.5324 41.9752C26.8274 41.9752 26.2546 42.548 26.2546 43.2529Z" fill="url(#paint23_radial_3063_8101)"/>
<path d="M26.3248 32.5082C26.3248 33.1761 26.8686 33.7188 27.5359 33.7188C28.2031 33.7188 28.7458 33.1761 28.7458 32.5082C28.7458 31.841 28.2031 31.2972 27.5359 31.2972C26.8686 31.2972 26.3248 31.841 26.3248 32.5082Z" fill="url(#paint24_radial_3063_8101)"/>
<defs>
<radialGradient id="paint0_radial_3063_8101" cx="0" cy="0" r="1" gradientUnits="userSpaceOnUse" gradientTransform="translate(10.9449 25.273) rotate(-56.6894) scale(25.7345 25.7345)">
<stop stop-color="#03D1FF"/>
<stop offset="0.287963" stop-color="#06C7F3"/>
<stop offset="0.919276" stop-color="#038DB3"/>
</radialGradient>
<radialGradient id="paint1_radial_3063_8101" cx="0" cy="0" r="1" gradientUnits="userSpaceOnUse" gradientTransform="translate(33.7886 13.4579) scale(2.91583 2.91583)">
<stop stop-color="#ED2224"/>
<stop offset="0.0177203" stop-color="#ED2224"/>
<stop offset="1" stop-color="#D71F26"/>
</radialGradient>
<radialGradient id="paint2_radial_3063_8101" cx="0" cy="0" r="1" gradientUnits="userSpaceOnUse" gradientTransform="translate(32.1045 15.2475) rotate(-50.8842) scale(5.91487 5.79053)">
<stop offset="0.348633" stop-color="#FF4344"/>
<stop offset="0.843663" stop-color="#D1171E"/>
</radialGradient>
<radialGradient id="paint3_radial_3063_8101" cx="0" cy="0" r="1" gradientUnits="userSpaceOnUse" gradientTransform="translate(33.6505 9.45939) scale(0.192163)">
<stop stop-color="#ED2224"/>
<stop offset="0.0177203" stop-color="#ED2224"/>
<stop offset="1" stop-color="#D71F26"/>
</radialGradient>
<radialGradient id="paint4_radial_3063_8101" cx="0" cy="0" r="1" gradientUnits="userSpaceOnUse" gradientTransform="translate(37.921 15.3974) scale(0.885335 0.885337)">
<stop stop-color="#ED2224"/>
<stop offset="0.0177203" stop-color="#ED2224"/>
<stop offset="1" stop-color="#D71F26"/>
</radialGradient>
<radialGradient id="paint5_radial_3063_8101" cx="0" cy="0" r="1" gradientUnits="userSpaceOnUse" gradientTransform="translate(37.4336 15.9628) rotate(-53.3194) scale(1.80781 1.73212)">
<stop offset="0.348633" stop-color="#FF4344"/>
<stop offset="0.843663" stop-color="#D1171E"/>
</radialGradient>
<radialGradient id="paint6_radial_3063_8101" cx="0" cy="0" r="1" gradientUnits="userSpaceOnUse" gradientTransform="translate(27.5356 8.07078) rotate(-45) scale(6.08295 6.08294)">
<stop offset="0.348633" stop-color="#FF4344"/>
<stop offset="0.843663" stop-color="#D1171E"/>
</radialGradient>
<radialGradient id="paint7_radial_3063_8101" cx="0" cy="0" r="1" gradientUnits="userSpaceOnUse" gradientTransform="translate(29.261 12.1225) scale(3.74536 3.74536)">
<stop stop-color="#ED2224"/>
<stop offset="0.0177203" stop-color="#ED2224"/>
<stop offset="1" stop-color="#D71F26"/>
</radialGradient>
<radialGradient id="paint8_radial_3063_8101" cx="0" cy="0" r="1" gradientUnits="userSpaceOnUse" gradientTransform="translate(27.4477 14.7115) rotate(-58.82) scale(7.76014 6.87455)">
<stop offset="0.348633" stop-color="#FF4344"/>
<stop offset="0.843663" stop-color="#D1171E"/>
</radialGradient>
<radialGradient id="paint9_radial_3063_8101" cx="0" cy="0" r="1" gradientUnits="userSpaceOnUse" gradientTransform="translate(27.4746 15.0738) scale(1.27777 1.27777)">
<stop stop-color="#ED2224"/>
<stop offset="0.0177203" stop-color="#ED2224"/>
<stop offset="1" stop-color="#D71F26"/>
</radialGradient>
<radialGradient id="paint10_radial_3063_8101" cx="0" cy="0" r="1" gradientUnits="userSpaceOnUse" gradientTransform="translate(26.717 15.8387) rotate(-49.4444) scale(2.58184 2.55083)">
<stop offset="0.348633" stop-color="#FF4344"/>
<stop offset="0.843663" stop-color="#D1171E"/>
</radialGradient>
<radialGradient id="paint11_radial_3063_8101" cx="0" cy="0" r="1" gradientUnits="userSpaceOnUse" gradientTransform="translate(27.4776 4.53892) scale(1.11119 1.11119)">
<stop stop-color="#ED2224"/>
<stop offset="0.0177203" stop-color="#ED2224"/>
<stop offset="1" stop-color="#D71F26"/>
</radialGradient>
<radialGradient id="paint12_radial_3063_8101" cx="0" cy="0" r="1" gradientUnits="userSpaceOnUse" gradientTransform="translate(26.7598 5.13882) rotate(-44.049) scale(2.21262 2.2114)">
<stop offset="0.348633" stop-color="#FF4344"/>
<stop offset="0.843663" stop-color="#D1171E"/>
</radialGradient>
<radialGradient id="paint13_radial_3063_8101" cx="0" cy="0" r="1" gradientUnits="userSpaceOnUse" gradientTransform="translate(33.6079 27.3212) rotate(4.14422) scale(3.08244 2.55978)">
<stop stop-color="#73F556"/>
<stop offset="1" stop-color="#23A84A"/>
</radialGradient>
<radialGradient id="paint14_radial_3063_8101" cx="0" cy="0" r="1" gradientUnits="userSpaceOnUse" gradientTransform="translate(36.494 21.075) rotate(4.75674) scale(3.53239 3.36327)">
<stop stop-color="#73F556"/>
<stop offset="1" stop-color="#23A84A"/>
</radialGradient>
<radialGradient id="paint15_radial_3063_8101" cx="0" cy="0" r="1" gradientUnits="userSpaceOnUse" gradientTransform="translate(38.3905 18.3443) rotate(3.54308) scale(1.46133 1.03849)">
<stop stop-color="#73F556"/>
<stop offset="1" stop-color="#23A84A"/>
</radialGradient>
<radialGradient id="paint16_radial_3063_8101" cx="0" cy="0" r="1" gradientUnits="userSpaceOnUse" gradientTransform="translate(30.7344 20.1401) rotate(2.35833) scale(5.29072 2.50617)">
<stop stop-color="#73F556"/>
<stop offset="1" stop-color="#23A84A"/>
</radialGradient>
<radialGradient id="paint17_radial_3063_8101" cx="0" cy="0" r="1" gradientUnits="userSpaceOnUse" gradientTransform="translate(29.3791 25.8863) rotate(4.99832) scale(3.69888 3.69888)">
<stop stop-color="#73F556"/>
<stop offset="0.816241" stop-color="#23A84A"/>
</radialGradient>
<radialGradient id="paint18_radial_3063_8101" cx="0" cy="0" r="1" gradientUnits="userSpaceOnUse" gradientTransform="translate(27.5577 29.0665) rotate(3.53872) scale(1.54257 1.09489)">
<stop stop-color="#73F556"/>
<stop offset="1" stop-color="#23A84A"/>
</radialGradient>
<radialGradient id="paint19_radial_3063_8101" cx="0" cy="0" r="1" gradientUnits="userSpaceOnUse" gradientTransform="translate(27.5593 18.3279) rotate(3.5396) scale(1.46138 1.03751)">
<stop stop-color="#73F556"/>
<stop offset="1" stop-color="#23A84A"/>
</radialGradient>
<radialGradient id="paint20_radial_3063_8101" cx="0" cy="0" r="1" gradientUnits="userSpaceOnUse" gradientTransform="translate(34.7402 32.3097) scale(1.02798)">
<stop stop-color="#FEC932"/>
<stop offset="1" stop-color="#F26821"/>
</radialGradient>
<radialGradient id="paint21_radial_3063_8101" cx="0" cy="0" r="1" gradientUnits="userSpaceOnUse" gradientTransform="translate(30.407 34.4476) scale(3.5867 3.5867)">
<stop stop-color="#FEC932"/>
<stop offset="1" stop-color="#F26821"/>
</radialGradient>
<radialGradient id="paint22_radial_3063_8101" cx="0" cy="0" r="1" gradientUnits="userSpaceOnUse" gradientTransform="translate(28.9078 38.7851) scale(2.73118 2.73118)">
<stop stop-color="#FEC932"/>
<stop offset="1" stop-color="#F26821"/>
</radialGradient>
<radialGradient id="paint23_radial_3063_8101" cx="0" cy="0" r="1" gradientUnits="userSpaceOnUse" gradientTransform="translate(27.3231 42.8372) scale(0.970746)">
<stop stop-color="#FEC932"/>
<stop offset="1" stop-color="#F26821"/>
</radialGradient>
<radialGradient id="paint24_radial_3063_8101" cx="0" cy="0" r="1" gradientUnits="userSpaceOnUse" gradientTransform="translate(27.5353 32.508) scale(1.21062)">
<stop stop-color="#FEC932"/>
<stop offset="1" stop-color="#F26821"/>
</radialGradient>
</defs>
</svg>
